<?xml version="1.0" encoding="UTF-8" standalone="no"?>
<!-- Created with Inkscape (http://www.inkscape.org/) -->

<svg
   xmlns:dc="http://purl.org/dc/elements/1.1/"
   xmlns:cc="http://creativecommons.org/ns#"
   xmlns:rdf="http://www.w3.org/1999/02/22-rdf-syntax-ns#"
   xmlns:svg="http://www.w3.org/2000/svg"
   xmlns="http://www.w3.org/2000/svg"
   xmlns:sodipodi="http://sodipodi.sourceforge.net/DTD/sodipodi-0.dtd"
   xmlns:inkscape="http://www.inkscape.org/namespaces/inkscape"
   id="svg2"
   version="1.1"
   inkscape:version="0.91 r13725"
   xml:space="preserve"
   width="1352.5433"
   height="374.04724"
   viewBox="0 0 1352.5432 374.04721"
   sodipodi:docname="main-logo-white-text.svg"><metadata
     id="metadata8"><rdf:RDF><cc:Work
         rdf:about=""><dc:format>image/svg+xml</dc:format><dc:type
           rdf:resource="http://purl.org/dc/dcmitype/StillImage" /><dc:title></dc:title></cc:Work></rdf:RDF></metadata><defs
     id="defs6"><clipPath
       clipPathUnits="userSpaceOnUse"
       id="clipPath18"><path
         d="m 0,1342.872 2038.269,0 L 2038.269,0 0,0 0,1342.872 Z"
         id="path20"
         inkscape:connector-curvature="0" /></clipPath><clipPath
       clipPathUnits="userSpaceOnUse"
       id="clipPath56"><path
         d="m 478.552,820.86 0,-156.15 0,-118.72 0,-23.978 0.955,0 c 32.886,0 61.822,16.813 78.744,42.298 l 0,0 c 0.041,0.061 0.08,0.124 0.121,0.185 l 0,0 c 0.829,1.256 1.629,2.531 2.398,3.827 l 0,0 c 0.098,0.164 0.193,0.33 0.29,0.495 l 0,0 c 0.704,1.201 1.381,2.417 2.032,3.651 l 0,0 c 0.126,0.238 0.25,0.477 0.374,0.717 l 0,0 c 0.608,1.175 1.19,2.365 1.75,3.569 l 0,0 c 0.133,0.288 0.267,0.575 0.399,0.864 l 0,0 c 0.531,1.175 1.035,2.362 1.519,3.56 l 0,0 c 0.129,0.319 0.26,0.635 0.385,0.955 l 0,0 c 0.469,1.198 0.908,2.41 1.328,3.632 l 0,0 c 0.11,0.321 0.227,0.639 0.335,0.963 l 0,0 c 0.42,1.265 0.807,2.544 1.175,3.833 l 0,0 c 0.08,0.282 0.169,0.56 0.247,0.843 l 0,0 c 0.393,1.43 0.75,2.872 1.077,4.328 l 0,0 c 0.032,0.144 0.071,0.286 0.103,0.431 l 0,0 c 0.717,3.265 1.268,6.592 1.638,9.975 l 0,0 c 0.002,0.029 0.004,0.058 0.007,0.086 l 0,0 c 0.175,1.615 0.307,3.242 0.399,4.88 l 0,0 c 0.021,0.375 0.025,0.754 0.041,1.13 l 0,0 c 0.048,1.064 0.105,2.126 0.117,3.199 l 0,0 0,-15.583 c 0,-20.022 -6.244,-38.577 -16.866,-53.86 l 0,0 22.813,0 c 75.145,0 136.061,60.917 136.061,136.061 l 0,0 0,2.748 c 0,75.145 -60.916,136.061 -136.061,136.061 l 0,0 -101.381,0 z m 161.519,-38.673 c 24.81,0 44.924,-20.113 44.924,-44.922 l 0,0 c 0,-24.812 -20.114,-44.924 -44.924,-44.924 l 0,0 c -19.297,0 -35.747,12.17 -42.107,29.251 l 0,0 c -6.361,-17.081 -22.812,-29.251 -42.109,-29.251 l 0,0 c -24.81,0 -44.922,20.112 -44.922,44.924 l 0,0 c 0,24.809 20.112,44.922 44.922,44.922 l 0,0 c 19.297,0 35.748,-12.169 42.109,-29.251 l 0,0 c 6.36,17.082 22.81,29.251 42.107,29.251 m -59.792,-90.356 35.368,0 -17.683,-30.63 -17.685,30.63 z"
         id="path58"
         inkscape:connector-curvature="0" /></clipPath><linearGradient
       x1="0"
       y1="0"
       x2="1"
       y2="0"
       gradientUnits="userSpaceOnUse"
       gradientTransform="matrix(331.63181,-384.27176,-384.27176,-331.63181,365.3483,897.44257)"
       spreadMethod="pad"
       id="linearGradient64"><stop
         style="stop-opacity:1;stop-color:#ffc800"
         offset="0"
         id="stop66" /><stop
         style="stop-opacity:1;stop-color:#ffb300"
         offset="1"
         id="stop68" /></linearGradient><clipPath
       clipPathUnits="userSpaceOnUse"
       id="clipPath76"><path
         d="m 531.352,737.265 c 0,-13.534 10.971,-24.505 24.503,-24.505 l 0,0 c 13.534,0 24.504,10.971 24.504,24.505 l 0,0 c 0,13.532 -10.97,24.502 -24.504,24.502 l 0,0 c -13.532,0 -24.503,-10.97 -24.503,-24.502"
         id="path78"
         inkscape:connector-curvature="0" /></clipPath><linearGradient
       x1="0"
       y1="0"
       x2="1"
       y2="0"
       gradientUnits="userSpaceOnUse"
       gradientTransform="matrix(331.63181,-384.27176,-384.27176,-331.63181,395.3067,923.29706)"
       spreadMethod="pad"
       id="linearGradient84"><stop
         style="stop-opacity:1;stop-color:#ffc800"
         offset="0"
         id="stop86" /><stop
         style="stop-opacity:1;stop-color:#ffb300"
         offset="1"
         id="stop88" /></linearGradient><clipPath
       clipPathUnits="userSpaceOnUse"
       id="clipPath96"><path
         d="m 615.568,737.265 c 0,-13.534 10.971,-24.505 24.503,-24.505 l 0,0 c 13.533,0 24.503,10.971 24.503,24.505 l 0,0 c 0,13.532 -10.97,24.502 -24.503,24.502 l 0,0 c -13.532,0 -24.503,-10.97 -24.503,-24.502"
         id="path98"
         inkscape:connector-curvature="0" /></clipPath><linearGradient
       x1="0"
       y1="0"
       x2="1"
       y2="0"
       gradientUnits="userSpaceOnUse"
       gradientTransform="matrix(331.63181,-384.27176,-384.27176,-331.63181,443.57349,964.95197)"
       spreadMethod="pad"
       id="linearGradient104"><stop
         style="stop-opacity:1;stop-color:#ffc800"
         offset="0"
         id="stop106" /><stop
         style="stop-opacity:1;stop-color:#ffb300"
         offset="1"
         id="stop108" /></linearGradient></defs><sodipodi:namedview
     pagecolor="#ffffff"
     bordercolor="#666666"
     borderopacity="1"
     objecttolerance="10"
     gridtolerance="10"
     guidetolerance="10"
     inkscape:pageopacity="0"
     inkscape:pageshadow="2"
     inkscape:window-width="1920"
     inkscape:window-height="1031"
     id="namedview4"
     showgrid="false"
     units="px"
     inkscape:showpageshadow="false"
     inkscape:zoom="0.79532201"
     inkscape:cx="407.73685"
     inkscape:cy="53.336809"
     inkscape:window-x="0"
     inkscape:window-y="0"
     inkscape:window-maximized="1"
     inkscape:current-layer="g10" /><g
     id="g10"
     inkscape:groupmode="layer"
     inkscape:label="Deskwize main logo white text"
     transform="matrix(1.25,0,0,-1.25,0,374.04717)"><g
       id="g14"
       transform="translate(-478.15913,-522.00072)"><g
         id="g16"
         clip-path="url(#clipPath18)"><g
           id="g22"
           transform="translate(815.0579,716.7534)"><path
             d="m 0,0 c -4.465,0 -8.13,-0.861 -11,-2.583 -2.871,-1.722 -5.2,-3.989 -6.985,-6.792 -1.789,-2.808 -3.061,-5.965 -3.829,-9.472 -0.763,-3.509 -1.145,-6.983 -1.145,-10.427 0,-3.445 0.382,-6.921 1.145,-10.427 0.768,-3.511 2.04,-6.667 3.829,-9.472 1.785,-2.807 4.114,-5.07 6.985,-6.792 2.87,-1.722 6.535,-2.583 11,-2.583 4.333,0 7.971,0.861 10.905,2.583 2.934,1.722 5.291,3.985 7.08,6.792 1.785,2.805 3.061,5.961 3.829,9.472 0.763,3.506 1.145,6.982 1.145,10.427 0,3.444 -0.382,6.918 -1.145,10.427 -0.768,3.507 -2.044,6.664 -3.829,9.472 -1.789,2.803 -4.146,5.07 -7.08,6.792 C 7.971,-0.861 4.333,0 0,0 m 22.195,-68.306 -0.381,0 c -2.938,-3.444 -6.445,-6.252 -10.524,-8.418 -4.086,-2.168 -9.632,-3.253 -16.649,-3.253 -6.25,0 -11.958,1.338 -17.123,4.018 -5.164,2.678 -9.6,6.314 -13.298,10.906 -3.701,4.591 -6.571,9.948 -8.609,16.072 -2.043,6.122 -3.063,12.691 -3.063,19.707 0,7.013 1.02,13.585 3.063,19.707 2.038,6.123 4.908,11.48 8.609,16.072 3.698,4.593 8.134,8.227 13.298,10.906 5.165,2.679 10.873,4.018 17.123,4.018 5.741,0 10.877,-0.926 15.405,-2.774 4.524,-1.85 8.575,-4.434 12.149,-7.749 l 0,47.642 23.344,0 0,-136.23 -23.344,0 0,9.376 z"
             style="fill:#ffffff;fill-opacity:1;fill-rule:nonzero;stroke:none"
             id="path24"
             inkscape:connector-curvature="0" /></g><g
           id="g26"
           transform="translate(948.989,699.9161)"><path
             d="m 0,0 c 0,1.273 -0.415,2.996 -1.244,5.166 -0.831,2.167 -2.137,4.272 -3.922,6.314 -1.787,2.039 -4.051,3.827 -6.792,5.357 -2.745,1.531 -6.093,2.296 -10.046,2.296 -6.888,0 -12.47,-1.883 -16.741,-5.644 C -43.021,9.725 -45.794,5.229 -47.068,0 L 0,0 Z m -47.068,-17.985 c 0.125,-3.573 0.89,-6.826 2.296,-9.758 1.401,-2.936 3.282,-5.424 5.645,-7.462 2.357,-2.043 5.003,-3.636 7.939,-4.784 2.934,-1.148 5.995,-1.722 9.184,-1.722 4.593,0 8.515,0.574 11.767,1.722 3.254,1.148 5.995,2.487 8.227,4.019 2.231,1.53 3.954,3.061 5.167,4.591 1.21,1.531 2.134,2.679 2.775,3.444 l 19.706,-11.48 c -1.787,-2.807 -4.051,-5.615 -6.792,-8.418 -2.745,-2.808 -6.027,-5.358 -9.853,-7.654 -3.827,-2.296 -8.293,-4.147 -13.394,-5.549 -5.102,-1.401 -10.972,-2.104 -17.603,-2.104 -7.91,0 -14.923,1.276 -21.047,3.826 -6.122,2.551 -11.288,6.09 -15.496,10.62 -4.21,4.526 -7.433,9.883 -9.663,16.072 -2.234,6.185 -3.349,12.914 -3.349,20.186 0,7.27 1.115,13.996 3.349,20.185 2.23,6.185 5.453,11.542 9.663,16.072 4.208,4.526 9.374,8.066 15.496,10.619 6.124,2.55 13.137,3.826 21.047,3.826 8.036,0 14.987,-1.309 20.855,-3.922 5.866,-2.615 10.716,-6.346 14.543,-11.193 3.826,-4.849 6.631,-10.747 8.418,-17.699 1.785,-6.953 2.679,-14.765 2.679,-23.437 l -71.559,0 z"
             style="fill:#ffffff;fill-opacity:1;fill-rule:nonzero;stroke:none"
             id="path28"
             inkscape:connector-curvature="0" /></g><g
           id="g30"
           transform="translate(1052.3087,705.2731)"><path
             d="m 0,0 c -0.765,1.531 -1.789,3.125 -3.061,4.784 -1.276,1.655 -2.936,3.156 -4.975,4.496 -2.042,1.34 -4.401,2.421 -7.079,3.253 -2.679,0.828 -5.741,1.243 -9.185,1.243 -5.487,0.125 -9.824,-0.67 -13.01,-2.391 -3.191,-1.723 -4.785,-4.051 -4.785,-6.984 0,-2.808 1.499,-4.879 4.499,-6.219 2.995,-1.339 6.758,-2.424 11.288,-3.252 4.526,-0.832 9.438,-1.692 14.731,-2.583 5.292,-0.894 10.203,-2.329 14.734,-4.305 4.526,-1.979 8.291,-4.72 11.288,-8.228 2.996,-3.509 4.496,-8.322 4.496,-14.446 0,-5.868 -1.212,-10.938 -3.635,-15.21 -2.423,-4.276 -5.614,-7.782 -9.567,-10.523 -3.954,-2.745 -8.546,-4.784 -13.775,-6.124 -5.232,-1.338 -10.589,-2.008 -16.072,-2.008 -11.481,0 -21.08,1.721 -28.796,5.166 -7.719,3.444 -13.746,7.587 -18.081,12.436 l 17.602,13.585 c 2.679,-3.955 6.44,-6.953 11.288,-8.993 4.846,-2.041 10.396,-3.061 16.648,-3.061 2.804,0 5.357,0.35 7.653,1.053 2.295,0.699 4.271,1.593 5.931,2.678 1.656,1.082 2.932,2.296 3.827,3.636 0.89,1.338 1.339,2.645 1.339,3.921 0,2.679 -1.469,4.689 -4.401,6.027 -2.936,1.34 -6.633,2.455 -11.097,3.349 -4.467,0.891 -9.279,1.818 -14.445,2.775 -5.167,0.956 -9.983,2.454 -14.447,4.496 -4.467,2.038 -8.164,4.846 -11.096,8.418 -2.936,3.57 -4.401,8.419 -4.401,14.542 0,5.483 1.115,10.204 3.347,14.158 2.231,3.953 5.262,7.205 9.089,9.758 3.826,2.551 8.354,4.431 13.586,5.644 5.228,1.212 10.839,1.818 16.836,1.818 5.741,0 10.841,-0.639 15.308,-1.913 4.462,-1.276 8.323,-2.84 11.575,-4.687 3.252,-1.851 5.961,-3.798 8.131,-5.836 2.167,-2.043 3.827,-3.764 4.976,-5.166 L 0,0 Z"
             style="fill:#ffffff;fill-opacity:1;fill-rule:nonzero;stroke:none"
             id="path32"
             inkscape:connector-curvature="0" /></g><g
           id="g34"
           transform="translate(1085.5997,775.3018)"><path
             d="m 0,0 23.344,0 0,-75.768 36.736,36.353 30.23,0 -37.501,-37.693 41.136,-59.122 -28.508,0 -28.892,43.433 -13.201,-13.011 0,-30.422 L 0,-136.23 0,0 Z"
             style="fill:#ffffff;fill-opacity:1;fill-rule:nonzero;stroke:none"
             id="path36"
             inkscape:connector-curvature="0" /></g><g
           id="g38"
           transform="translate(1178.3942,735.8866)"><path
             d="m 0,0 24.108,0 16.263,-65.819 0.384,0 L 58.931,0 l 21.046,0 18.176,-65.819 0.384,0 16.264,65.819 24.107,0 -27.934,-96.815 -22.96,0 -18.369,64.863 -0.382,0 -18.368,-64.863 -22.961,0 L 0,0 Z"
             style="fill:#ffffff;fill-opacity:1;fill-rule:nonzero;stroke:none"
             id="path40"
             inkscape:connector-curvature="0" /></g><path
           d="m 1330.311,735.887 23.344,0 0,-96.815 -23.344,0 0,96.815 z m 0,39.415 23.344,0 0,-23.726 -23.344,0 0,23.726 z"
           style="fill:#ffffff;fill-opacity:1;fill-rule:nonzero;stroke:none"
           id="path42"
           inkscape:connector-curvature="0" /><g
           id="g44"
           transform="translate(1370.1074,657.0571)"><path
             d="m 0,0 51.276,58.548 -45.919,0 0,20.282 76.724,0 0,-17.986 -50.702,-58.548 50.702,0 0,-20.281 L 0,-17.985 0,0 Z"
             style="fill:#ffffff;fill-opacity:1;fill-rule:nonzero;stroke:none"
             id="path46"
             inkscape:connector-curvature="0" /></g><g
           id="g48"
           transform="translate(1534.0776,699.9161)"><path
             d="m 0,0 c 0,1.273 -0.416,2.996 -1.244,5.166 -0.831,2.167 -2.137,4.272 -3.922,6.314 -1.787,2.039 -4.051,3.827 -6.792,5.357 -2.745,1.531 -6.093,2.296 -10.047,2.296 -6.887,0 -12.469,-1.883 -16.74,-5.644 C -43.021,9.725 -45.794,5.229 -47.068,0 L 0,0 Z m -47.068,-17.985 c 0.125,-3.573 0.89,-6.826 2.296,-9.758 1.401,-2.936 3.282,-5.424 5.645,-7.462 2.357,-2.043 5.003,-3.636 7.939,-4.784 2.934,-1.148 5.995,-1.722 9.183,-1.722 4.594,0 8.516,0.574 11.768,1.722 3.254,1.148 5.995,2.487 8.227,4.019 2.231,1.53 3.954,3.061 5.166,4.591 1.211,1.531 2.135,2.679 2.775,3.444 l 19.707,-11.48 c -1.787,-2.807 -4.051,-5.615 -6.792,-8.418 -2.745,-2.808 -6.027,-5.358 -9.853,-7.654 -3.827,-2.296 -8.293,-4.147 -13.394,-5.549 -5.103,-1.401 -10.972,-2.104 -17.604,-2.104 -7.909,0 -14.922,1.276 -21.046,3.826 -6.122,2.551 -11.288,6.09 -15.496,10.62 -4.211,4.526 -7.433,9.883 -9.663,16.072 -2.234,6.185 -3.349,12.914 -3.349,20.186 0,7.27 1.115,13.996 3.349,20.185 2.23,6.185 5.452,11.542 9.663,16.072 4.208,4.526 9.374,8.066 15.496,10.619 6.124,2.55 13.137,3.826 21.046,3.826 8.037,0 14.988,-1.309 20.856,-3.922 5.866,-2.615 10.716,-6.346 14.542,-11.193 3.827,-4.849 6.632,-10.747 8.419,-17.699 1.785,-6.953 2.679,-14.765 2.679,-23.437 l -71.559,0 z"
             style="fill:#ffffff;fill-opacity:1;fill-rule:nonzero;stroke:none"
             id="path50"
             inkscape:connector-curvature="0" /></g></g></g><g
       id="g52"
       transform="translate(-478.15913,-522.00072)"><g
         id="g54"
         clip-path="url(#clipPath56)"><g
           id="g60"><g
             id="g62"><path
               d="m 478.552,820.86 0,-156.15 0,-118.72 0,-23.978 0.955,0 c 32.886,0 61.822,16.813 78.744,42.298 l 0,0 c 0.041,0.061 0.08,0.124 0.121,0.185 l 0,0 c 0.829,1.256 1.629,2.531 2.398,3.827 l 0,0 c 0.098,0.164 0.193,0.33 0.29,0.495 l 0,0 c 0.704,1.201 1.381,2.417 2.032,3.651 l 0,0 c 0.126,0.238 0.25,0.477 0.374,0.717 l 0,0 c 0.608,1.175 1.19,2.365 1.75,3.569 l 0,0 c 0.133,0.288 0.267,0.575 0.399,0.864 l 0,0 c 0.531,1.175 1.035,2.362 1.519,3.56 l 0,0 c 0.129,0.319 0.26,0.635 0.385,0.955 l 0,0 c 0.469,1.198 0.908,2.41 1.328,3.632 l 0,0 c 0.11,0.321 0.227,0.639 0.335,0.963 l 0,0 c 0.42,1.265 0.807,2.544 1.175,3.833 l 0,0 c 0.08,0.282 0.169,0.56 0.247,0.843 l 0,0 c 0.393,1.43 0.75,2.872 1.077,4.328 l 0,0 c 0.032,0.144 0.071,0.286 0.103,0.431 l 0,0 c 0.717,3.265 1.268,6.592 1.638,9.975 l 0,0 c 0.002,0.029 0.004,0.058 0.007,0.086 l 0,0 c 0.175,1.615 0.307,3.242 0.399,4.88 l 0,0 c 0.021,0.375 0.025,0.754 0.041,1.13 l 0,0 c 0.048,1.064 0.105,2.126 0.117,3.199 l 0,0 0,-15.583 c 0,-20.022 -6.244,-38.577 -16.866,-53.86 l 0,0 22.813,0 c 75.145,0 136.061,60.917 136.061,136.061 l 0,0 0,2.748 c 0,75.145 -60.916,136.061 -136.061,136.061 l 0,0 -101.381,0 z m 161.519,-38.673 c 24.81,0 44.924,-20.113 44.924,-44.922 l 0,0 c 0,-24.812 -20.114,-44.924 -44.924,-44.924 l 0,0 c -19.297,0 -35.747,12.17 -42.107,29.251 l 0,0 c -6.361,-17.081 -22.812,-29.251 -42.109,-29.251 l 0,0 c -24.81,0 -44.922,20.112 -44.922,44.924 l 0,0 c 0,24.809 20.112,44.922 44.922,44.922 l 0,0 c 19.297,0 35.748,-12.169 42.109,-29.251 l 0,0 c 6.36,17.082 22.81,29.251 42.107,29.251 m -59.792,-90.356 35.368,0 -17.683,-30.63 -17.685,30.63 z"
               style="fill:url(#linearGradient64);stroke:none"
               id="path70"
               inkscape:connector-curvature="0" /></g></g></g></g><g
       id="g72"
       transform="translate(-478.15913,-522.00072)"><g
         id="g74"
         clip-path="url(#clipPath76)"><g
           id="g80"><g
             id="g82"><path
               d="m 531.352,737.265 c 0,-13.534 10.971,-24.505 24.503,-24.505 l 0,0 c 13.534,0 24.504,10.971 24.504,24.505 l 0,0 c 0,13.532 -10.97,24.502 -24.504,24.502 l 0,0 c -13.532,0 -24.503,-10.97 -24.503,-24.502"
               style="fill:url(#linearGradient84);stroke:none"
               id="path90"
               inkscape:connector-curvature="0" /></g></g></g></g><g
       id="g92"
       transform="translate(-478.15913,-522.00072)"><g
         id="g94"
         clip-path="url(#clipPath96)"><g
           id="g100"><g
             id="g102"><path
               d="m 615.568,737.265 c 0,-13.534 10.971,-24.505 24.503,-24.505 l 0,0 c 13.533,0 24.503,10.971 24.503,24.505 l 0,0 c 0,13.532 -10.97,24.502 -24.503,24.502 l 0,0 c -13.532,0 -24.503,-10.97 -24.503,-24.502"
               style="fill:url(#linearGradient104);stroke:none"
               id="path110"
               inkscape:connector-curvature="0" /></g></g></g></g></g></svg>