<?xml version="1.0" encoding="UTF-8" standalone="no"?>
<!-- Created with Inkscape (http://www.inkscape.org/) -->

<svg
   xmlns:dc="http://purl.org/dc/elements/1.1/"
   xmlns:cc="http://creativecommons.org/ns#"
   xmlns:rdf="http://www.w3.org/1999/02/22-rdf-syntax-ns#"
   xmlns:svg="http://www.w3.org/2000/svg"
   xmlns="http://www.w3.org/2000/svg"
   xmlns:sodipodi="http://sodipodi.sourceforge.net/DTD/sodipodi-0.dtd"
   xmlns:inkscape="http://www.inkscape.org/namespaces/inkscape"
   id="svg2"
   version="1.1"
   inkscape:version="0.91 r13725"
   xml:space="preserve"
   width="297.3544"
   height="374.04724"
   viewBox="0 0 297.35433 374.04715"
   sodipodi:docname="main-logo.svg"><metadata
     id="metadata8"><rdf:RDF><cc:Work
         rdf:about=""><dc:format>image/svg+xml</dc:format><dc:type
           rdf:resource="http://purl.org/dc/dcmitype/StillImage" /><dc:title></dc:title></cc:Work></rdf:RDF></metadata><defs
     id="defs6"><clipPath
       clipPathUnits="userSpaceOnUse"
       id="clipPath18"><path
         d="m 0,1342.872 2038.269,0 L 2038.269,0 0,0 0,1342.872 Z"
         id="path20"
         inkscape:connector-curvature="0" /></clipPath><clipPath
       clipPathUnits="userSpaceOnUse"
       id="clipPath56"><path
         d="m 478.552,820.86 0,-156.15 0,-118.72 0,-23.978 0.955,0 c 32.886,0 61.822,16.813 78.744,42.298 l 0,0 c 0.041,0.061 0.08,0.124 0.121,0.185 l 0,0 c 0.829,1.256 1.629,2.531 2.398,3.827 l 0,0 c 0.098,0.164 0.193,0.33 0.29,0.495 l 0,0 c 0.704,1.201 1.381,2.417 2.032,3.651 l 0,0 c 0.126,0.238 0.25,0.477 0.374,0.717 l 0,0 c 0.608,1.175 1.19,2.365 1.75,3.569 l 0,0 c 0.133,0.288 0.267,0.575 0.399,0.864 l 0,0 c 0.531,1.175 1.035,2.362 1.519,3.56 l 0,0 c 0.129,0.319 0.26,0.635 0.385,0.955 l 0,0 c 0.469,1.198 0.908,2.41 1.328,3.632 l 0,0 c 0.11,0.321 0.227,0.639 0.335,0.963 l 0,0 c 0.42,1.265 0.807,2.544 1.175,3.833 l 0,0 c 0.08,0.282 0.169,0.56 0.247,0.843 l 0,0 c 0.393,1.43 0.75,2.872 1.077,4.328 l 0,0 c 0.032,0.144 0.071,0.286 0.103,0.431 l 0,0 c 0.717,3.265 1.268,6.592 1.638,9.975 l 0,0 c 0.002,0.029 0.004,0.058 0.007,0.086 l 0,0 c 0.175,1.615 0.307,3.242 0.399,4.88 l 0,0 c 0.021,0.375 0.025,0.754 0.041,1.13 l 0,0 c 0.048,1.064 0.105,2.126 0.117,3.199 l 0,0 0,-15.583 c 0,-20.022 -6.244,-38.577 -16.866,-53.86 l 0,0 22.813,0 c 75.145,0 136.061,60.917 136.061,136.061 l 0,0 0,2.748 c 0,75.145 -60.916,136.061 -136.061,136.061 l 0,0 -101.381,0 z m 161.519,-38.673 c 24.81,0 44.924,-20.113 44.924,-44.922 l 0,0 c 0,-24.812 -20.114,-44.924 -44.924,-44.924 l 0,0 c -19.297,0 -35.747,12.17 -42.107,29.251 l 0,0 c -6.361,-17.081 -22.812,-29.251 -42.109,-29.251 l 0,0 c -24.81,0 -44.922,20.112 -44.922,44.924 l 0,0 c 0,24.809 20.112,44.922 44.922,44.922 l 0,0 c 19.297,0 35.748,-12.169 42.109,-29.251 l 0,0 c 6.36,17.082 22.81,29.251 42.107,29.251 m -59.792,-90.356 35.368,0 -17.683,-30.63 -17.685,30.63 z"
         id="path58"
         inkscape:connector-curvature="0" /></clipPath><linearGradient
       x1="0"
       y1="0"
       x2="1"
       y2="0"
       gradientUnits="userSpaceOnUse"
       gradientTransform="matrix(331.63181,-384.27176,-384.27176,-331.63181,365.3483,897.44257)"
       spreadMethod="pad"
       id="linearGradient64"><stop
         style="stop-opacity:1;stop-color:#9EC400"
         offset="0"
         id="stop66" /><stop
         style="stop-opacity:1;stop-color:#9DC200"
         offset="1"
         id="stop68" /></linearGradient><clipPath
       clipPathUnits="userSpaceOnUse"
       id="clipPath76"><path
         d="m 531.352,737.265 c 0,-13.534 10.971,-24.505 24.503,-24.505 l 0,0 c 13.534,0 24.504,10.971 24.504,24.505 l 0,0 c 0,13.532 -10.97,24.502 -24.504,24.502 l 0,0 c -13.532,0 -24.503,-10.97 -24.503,-24.502"
         id="path78"
         inkscape:connector-curvature="0" /></clipPath><linearGradient
       x1="0"
       y1="0"
       x2="1"
       y2="0"
       gradientUnits="userSpaceOnUse"
       gradientTransform="matrix(331.63181,-384.27176,-384.27176,-331.63181,395.3067,923.29706)"
       spreadMethod="pad"
       id="linearGradient84"><stop
         style="stop-opacity:1;stop-color:#9EC400"
         offset="0"
         id="stop86" /><stop
         style="stop-opacity:1;stop-color:#9DC200"
         offset="1"
         id="stop88" /></linearGradient><clipPath
       clipPathUnits="userSpaceOnUse"
       id="clipPath96"><path
         d="m 615.568,737.265 c 0,-13.534 10.971,-24.505 24.503,-24.505 l 0,0 c 13.533,0 24.503,10.971 24.503,24.505 l 0,0 c 0,13.532 -10.97,24.502 -24.503,24.502 l 0,0 c -13.532,0 -24.503,-10.97 -24.503,-24.502"
         id="path98"
         inkscape:connector-curvature="0" /></clipPath><linearGradient
       x1="0"
       y1="0"
       x2="1"
       y2="0"
       gradientUnits="userSpaceOnUse"
       gradientTransform="matrix(331.63181,-384.27176,-384.27176,-331.63181,443.57349,964.95197)"
       spreadMethod="pad"
       id="linearGradient104"><stop
         style="stop-opacity:1;stop-color:#9EC400"
         offset="0"
         id="stop106" /><stop
         style="stop-opacity:1;stop-color:#9DC200"
         offset="1"
         id="stop108" /></linearGradient></defs><sodipodi:namedview
     pagecolor="#ffffff"
     bordercolor="#666666"
     borderopacity="1"
     objecttolerance="10"
     gridtolerance="10"
     guidetolerance="10"
     inkscape:pageopacity="0"
     inkscape:pageshadow="2"
     inkscape:window-width="1366"
     inkscape:window-height="743"
     id="namedview4"
     showgrid="false"
     units="px"
     inkscape:showpageshadow="false"
     inkscape:zoom="1.1247552"
     inkscape:cx="155.33819"
     inkscape:cy="237.10251"
     inkscape:window-x="1920"
     inkscape:window-y="0"
     inkscape:window-maximized="1"
     inkscape:current-layer="g10" /><g
     id="g10"
     inkscape:groupmode="layer"
     inkscape:label="Deskwize main logo white text"
     transform="matrix(1.25,0,0,-1.25,0,374.04717)"><g
       id="g52"
       transform="translate(-478.15913,-522.00072)"><g
         id="g54"
         clip-path="url(#clipPath56)"><g
           id="g60"><g
             id="g62"><path
               d="m 478.552,820.86 0,-156.15 0,-118.72 0,-23.978 0.955,0 c 32.886,0 61.822,16.813 78.744,42.298 l 0,0 c 0.041,0.061 0.08,0.124 0.121,0.185 l 0,0 c 0.829,1.256 1.629,2.531 2.398,3.827 l 0,0 c 0.098,0.164 0.193,0.33 0.29,0.495 l 0,0 c 0.704,1.201 1.381,2.417 2.032,3.651 l 0,0 c 0.126,0.238 0.25,0.477 0.374,0.717 l 0,0 c 0.608,1.175 1.19,2.365 1.75,3.569 l 0,0 c 0.133,0.288 0.267,0.575 0.399,0.864 l 0,0 c 0.531,1.175 1.035,2.362 1.519,3.56 l 0,0 c 0.129,0.319 0.26,0.635 0.385,0.955 l 0,0 c 0.469,1.198 0.908,2.41 1.328,3.632 l 0,0 c 0.11,0.321 0.227,0.639 0.335,0.963 l 0,0 c 0.42,1.265 0.807,2.544 1.175,3.833 l 0,0 c 0.08,0.282 0.169,0.56 0.247,0.843 l 0,0 c 0.393,1.43 0.75,2.872 1.077,4.328 l 0,0 c 0.032,0.144 0.071,0.286 0.103,0.431 l 0,0 c 0.717,3.265 1.268,6.592 1.638,9.975 l 0,0 c 0.002,0.029 0.004,0.058 0.007,0.086 l 0,0 c 0.175,1.615 0.307,3.242 0.399,4.88 l 0,0 c 0.021,0.375 0.025,0.754 0.041,1.13 l 0,0 c 0.048,1.064 0.105,2.126 0.117,3.199 l 0,0 0,-15.583 c 0,-20.022 -6.244,-38.577 -16.866,-53.86 l 0,0 22.813,0 c 75.145,0 136.061,60.917 136.061,136.061 l 0,0 0,2.748 c 0,75.145 -60.916,136.061 -136.061,136.061 l 0,0 -101.381,0 z m 161.519,-38.673 c 24.81,0 44.924,-20.113 44.924,-44.922 l 0,0 c 0,-24.812 -20.114,-44.924 -44.924,-44.924 l 0,0 c -19.297,0 -35.747,12.17 -42.107,29.251 l 0,0 c -6.361,-17.081 -22.812,-29.251 -42.109,-29.251 l 0,0 c -24.81,0 -44.922,20.112 -44.922,44.924 l 0,0 c 0,24.809 20.112,44.922 44.922,44.922 l 0,0 c 19.297,0 35.748,-12.169 42.109,-29.251 l 0,0 c 6.36,17.082 22.81,29.251 42.107,29.251 m -59.792,-90.356 35.368,0 -17.683,-30.63 -17.685,30.63 z"
               style="fill:url(#linearGradient64);stroke:none"
               id="path70"
               inkscape:connector-curvature="0" /></g></g></g></g><g
       id="g72"
       transform="translate(-478.15913,-522.00072)"><g
         id="g74"
         clip-path="url(#clipPath76)"><g
           id="g80"><g
             id="g82"><path
               d="m 531.352,737.265 c 0,-13.534 10.971,-24.505 24.503,-24.505 l 0,0 c 13.534,0 24.504,10.971 24.504,24.505 l 0,0 c 0,13.532 -10.97,24.502 -24.504,24.502 l 0,0 c -13.532,0 -24.503,-10.97 -24.503,-24.502"
               style="fill:url(#linearGradient84);stroke:none"
               id="path90"
               inkscape:connector-curvature="0" /></g></g></g></g><g
       id="g92"
       transform="translate(-478.15913,-522.00072)"><g
         id="g94"
         clip-path="url(#clipPath96)"><g
           id="g100"><g
             id="g102"><path
               d="m 615.568,737.265 c 0,-13.534 10.971,-24.505 24.503,-24.505 l 0,0 c 13.533,0 24.503,10.971 24.503,24.505 l 0,0 c 0,13.532 -10.97,24.502 -24.503,24.502 l 0,0 c -13.532,0 -24.503,-10.97 -24.503,-24.502"
               style="fill:url(#linearGradient104);stroke:none"
               id="path110"
               inkscape:connector-curvature="0" /></g></g></g></g></g></svg>
