<svg xmlns="http://www.w3.org/2000/svg" width="38" height="47" viewBox="0 0 38 47">
  <defs>
    <style>
      .cls-1 {
        fill-rule: evenodd;
      }
    </style>
  </defs>
  <path id="owl" class="cls-1" d="M42.224,16H26V63h0.153a15.17,15.17,0,0,0,12.6-6.652l0.019-.029q0.2-.3.384-0.6l0.047-.078q0.169-.284.325-0.575l0.06-.112q0.146-.278.28-0.561l0.064-.136q0.127-.277.243-0.56c0.021-.05.042-0.1,0.062-0.15,0.075-.189.145-0.379,0.212-0.571,0.018-.051.036-0.1,0.054-0.152,0.067-.2.129-0.4,0.188-0.6,0.013-.044.027-0.088,0.04-0.132q0.094-.338.172-0.681c0.005-.023.011-0.045,0.017-0.068a14.6,14.6,0,0,0,.262-1.569s0-.009,0-0.013q0.042-.381.064-0.768c0-.059,0-0.118.007-0.178,0.008-.167.017-0.335,0.019-0.5v2.451a14.615,14.615,0,0,1-2.7,8.471h3.651A21.589,21.589,0,0,0,64,37.83V37.4A21.589,21.589,0,0,0,42.224,16Zm2.886,25.11-2.83-4.817h5.66Zm6.739-4.9a7.187,7.187,0,0,1-6.739-4.6,7.067,7.067,0,1,1,0-4.93A7.165,7.165,0,1,1,51.848,36.212ZM38.371,25.294a3.854,3.854,0,1,0,3.921,3.853A3.888,3.888,0,0,0,38.371,25.294Zm13.477,0a3.854,3.854,0,1,0,3.921,3.853A3.888,3.888,0,0,0,51.848,25.294Z" transform="translate(-26 -16)"/>
</svg>
