<svg xmlns="http://www.w3.org/2000/svg" width="36" height="36" viewBox="0 0 36 36">
  <defs>
    <style>
      .cls-1 {
        fill: #71b48d;
        fill-rule: evenodd;
      }
    </style>
  </defs>
  <path class="cls-1" d="M97,1627a18,18,0,1,0,18,18A18.017,18.017,0,0,0,97,1627Zm0,34.61A16.615,16.615,0,1,1,113.614,1645,16.631,16.631,0,0,1,97,1661.61Zm8.482-23.99-10.64,11.96-6.41-5.12a0.692,0.692,0,1,0-.865,1.08l6.923,5.54a0.7,0.7,0,0,0,.95-0.08l11.077-12.47A0.689,0.689,0,1,0,105.481,1637.62Z" transform="translate(-79 -1627)"/>
</svg>
